<svg width="536" height="598" viewBox="0 0 536 598" fill="none" xmlns="http://www.w3.org/2000/svg">
<path d="M212.375 0.0510332C219.863 -0.372895 215.402 1.89397 218.063 5.00479C220.687 5.90517 220.822 3.44246 223.61 2.6032L224.167 2.95392C224.768 4.41994 224.588 6.3303 224.581 7.9786C223.059 8.63665 220.176 10.3097 219.5 11.9064C218.104 15.5303 224.049 15.5682 224.697 18.5192C225.586 22.5582 222.763 23.859 219.807 24.959C218.809 27.142 217.263 29.8128 217.747 31.9641C218.453 35.1026 222.735 36.32 225.092 38.0525L225.67 39.5477C228.046 41.0767 230.727 42.3651 233.139 43.9479L237.558 43.9893C238.588 43.3414 239.915 42.2177 240.899 41.4347C242.738 42.0649 253.71 46.6513 254.39 47.3393C263.585 56.6344 256.527 58.3134 272.847 57.7462C275.389 59.181 276.246 59.451 278.788 60.557C281.146 61.5832 284.826 65.4755 287.808 65.3025C290.434 65.1503 293.114 61.3073 294.796 59.3337C294.304 55.3676 290.701 49.8458 293.722 47.2595C301.476 40.7163 311.557 41.3882 319.864 46.5502C320.476 46.9307 334.905 53.8696 334.543 53.9549C341.888 52.2196 345.864 54.1093 352.903 56.4366C355.639 57.3414 359.331 59.5782 362.368 59.9508C368.32 59.0211 372.203 52.6357 379.024 52.953C384.57 53.2109 384.324 54.4004 388.148 57.4491L388.433 57.6733C391.849 57.658 400.814 57.0429 403.312 59.0476C404.665 62.4289 404.408 69.3388 404.668 73.2144C404.877 76.3714 406.413 87.2396 403.533 89.1736L402.714 88.971C398.301 85.4098 393.065 71.1814 390.11 70.4061C389.12 71.5885 389.353 75.3131 390.113 76.5995C393.17 81.7769 397.753 86.2087 400.91 91.4289C401.93 93.1178 401.714 96.6646 402.484 97.8425C406.904 104.601 410.943 111.406 414.38 118.722C415.366 120.829 411.271 125.757 414.526 127.196C416.843 128.219 417.41 130.3 419.229 131.913C420.664 133.059 422.183 133.388 423.743 134.686C424.464 136.097 424.366 138.624 424.429 140.338L428.247 142.949C426.958 147.773 425.761 148.928 428.038 153.764C428.442 154.625 429.112 156.34 429.101 157.268C429.027 163.602 437.127 166.003 439.835 171.93C441.655 175.91 440.185 180.083 441.859 183.495C443.059 185.942 449.504 191.886 451.664 194.212C452.955 194.907 454.883 195.764 456.305 196.134C460.032 197.102 461.862 200.494 463.463 203.955C465.004 204.242 466.627 204.431 468.185 204.64C468.97 206.264 469.327 207.489 469.865 209.187C475.02 213.421 475.646 213.671 475.403 220.449C481.4 225.951 482.227 233.896 491.505 226.201C494.723 226.026 498.278 226.307 501.451 225.418C503.311 224.898 506.11 223.248 507.974 223.068C512.193 222.594 517.405 224.069 521.522 222.577C525.455 220.988 529.046 217.205 533.654 218.761C534.596 219.084 534.485 222.078 534.499 223.029C534.552 226.316 534.698 227.967 536 231.034L533.084 233.229C531.773 241.875 530.84 241.498 526.03 249.067C525.836 249.372 524.074 253.385 523.724 254.146C517.984 256.069 519.128 259.625 518.693 265.054C517.347 267.079 515.684 268.306 514.274 270.234C512.354 272.74 511.033 275.636 508.99 278.062C503.866 284.153 497.588 289.43 492.101 295.213C490.837 296.544 486.793 297.965 485.256 299.205C478.705 304.493 472.882 310.743 467.19 316.933C464.824 319.535 463.232 323.089 460.631 325.617C458.354 327.829 455.81 329.392 453.395 331.423C448.516 336.992 443.663 345.392 441.431 352.301C438.661 360.871 442.382 358.4 445.742 363.43C446.96 365.254 445.081 369.766 444.162 371.813C444.611 376.677 446.375 380.956 448.302 385.439C449.172 387.463 451.068 389.216 452.544 390.911C452.641 396.956 453.234 401.93 454.042 407.903C454.351 410.189 453.086 414.441 453.326 417.012C453.603 419.984 454.477 422.969 454.184 425.941C453.641 429.31 451.869 431.536 451.445 435.08C442.632 443.429 449.765 444.202 433.627 446.682C426.509 455.422 415.143 461.602 407.766 471.557C408.333 472.257 408.888 472.967 409.43 473.687C410.139 474.634 411.867 477.177 412.117 478.519C413.649 486.592 414.429 495.904 414.238 504.081C414.101 509.932 392.618 511.641 392.162 516.71C392.876 518.281 394.105 519.181 395.4 520.37C395.156 522.828 391.238 541.743 389.527 542.55C383.827 545.239 381.631 548.338 377.487 552.74C377.189 555.724 375.961 562.265 373.817 564.37C368.893 569.203 364.121 574.919 359.03 579.507C357.781 580.519 352.674 585.815 352.231 586.029C346.609 588.766 336.329 592.168 330.121 593.154C324.503 594.047 314.712 589.805 309.058 594.239C307.001 594.272 305.024 594.247 303.002 594.581C300.34 595.02 292.29 599.192 290.133 597.666C286.222 594.898 278.32 585.969 276.58 581.359C275.773 579.223 278.687 575.535 279.897 573.344C277.715 565.131 266.72 553.172 266.358 543.553C258.569 536.167 254.16 528.543 253.028 517.504C252.753 514.821 253.165 510.966 252.719 508.441C252.15 505.233 249.471 501.249 249.249 497.884C249.011 494.251 250.845 490.705 249.535 487.036C248.8 484.977 245.836 483.169 244.942 481.188C239.718 469.62 241.378 462.362 229.847 454.652C228.795 449.314 228.905 436.221 231.675 431.849C236.75 423.837 234.012 420.511 235.999 412.645C237.129 408.173 247.45 403.36 246.19 396.811C245.437 392.898 244.406 392.36 241.64 390.122C240.618 386.176 239.353 385.82 237.788 382.598C236.533 380.013 241.984 377.634 241.742 375.484C241.661 374.762 240.483 372.079 240.219 371.259C234.612 358.691 231.546 365.583 232.372 350.118C230.38 346.357 228.86 346.514 226.422 343.121C225.72 342.144 224.636 339.418 224.12 338.175C220.184 335.122 210.72 331.513 209.09 325.901C207.474 320.34 210.041 311.921 210.547 306.166C211.136 299.479 210.758 295.782 214.024 289.732C213.456 282.901 211.457 281.573 206.83 276.938C201.272 276.927 186.812 277.229 181.849 276.5C175.695 270.916 178.563 269.4 173.669 262.681C168.764 262.203 164.197 261.599 159.153 261.179C155.148 263.593 152.749 263.57 148.133 264.146C144.772 267.013 142.749 266.56 139.104 268.188C132.937 270.943 121.642 276.985 116.128 270.39C115.003 269.045 112.451 269.706 110.909 269.502C98.4619 267.847 91.0035 276.527 79.1417 277.431C68.5452 272.254 49.8155 259.658 41.3525 251.638C32.2593 243.021 24.988 220.7 10.9072 216.255C8.68109 210.647 9.05515 208.537 9.20359 203.258C9.27404 200.752 3.06629 195.539 1.05764 194.936C0.416815 194.742 0.107162 194.013 0 193.173C1.55809 190.311 9.29609 189.538 9.80461 187.483C11.5995 180.228 13.3192 171.791 14.9856 164.479C11.3909 157.028 13.4336 154.967 11.3541 147.557C10.3407 146.931 9.00123 146.243 7.93471 145.656C7.75521 142.208 6.71129 140.396 7.26095 136.781C7.98097 132.049 11.5048 132.156 13.6331 128.382C15.3001 125.425 15.755 121.389 16.1312 118.066C20.0326 113.183 22.9622 113.507 24.7295 106.112C25.3046 102.678 31.7975 98.0201 33.0022 95.6337C38.0756 85.5843 37.7633 85.6329 47.9705 82.7598C50.2211 82.1263 62.7768 69.5097 63.6348 66.4702C64.153 64.634 59.5723 58.8359 61.5348 56.0088C64.329 50.8303 68.763 39.5223 73.7728 36.5231C75.7762 35.3241 83.9378 32.1045 86.8152 30.6921C93.3619 19.1591 87.8975 8.59811 104.812 21.1818C112.424 18.3826 116.132 19.8802 123.857 20.2427C126.011 20.3438 127.127 18.0375 128.614 16.4007C131.07 13.6997 133.762 14.8008 137.079 13.61C139.208 12.846 141.82 9.70131 143.816 9.30438C149.084 8.25678 155.642 8.60509 160.837 7.31571C163.985 6.36791 166.7 3.40995 170.099 3.26864C174.784 3.07387 177.472 5.71993 182.292 5.46498C182.957 5.01768 185.288 3.42513 185.885 3.32586C192.571 2.21554 206.368 3.70775 212.375 0.0510332Z" fill="white"/>
<path d="M513.342 418C513.753 418.174 514.027 418.4 514.325 418.726C517.31 421.991 517.512 423.972 517.456 428.027L518.661 429.718L518.679 430.028C518.764 431.701 518.846 435.23 517.719 436.457C516.864 436.676 516.724 436.465 515.787 436.173C514.877 436.361 515.111 436.71 514.893 437.875C514.374 440.662 514.06 444.031 513.292 446.719C512.707 448.865 511.231 451.532 510.864 453.642C510.49 457.014 510.922 458.551 509.361 461.757C507.425 465.733 507.403 471.461 506.345 475.753C505.681 478.45 504.5 481.138 503.327 483.595C502.96 484.365 499.942 487.082 499.194 487.799C495.803 488.17 493.095 490.437 489.993 488.358C488.772 486.631 487.098 485.584 486.06 483.48C484.901 481.131 485.922 479.409 485.719 477.165C485.525 475.024 483.735 470.473 484.033 468.328C484.57 464.474 488.342 463.422 489.248 458.665C490.076 454.316 489.071 455.018 488.453 451.229C487.743 446.872 488.615 442.582 490.034 438.509C491.811 437.18 499.344 434.695 501.855 434.042C503 431.145 503.746 432.51 504.81 430.514C506.125 428.05 505.669 425.8 507.664 423.494L508.54 423.252C510.954 422.603 510.553 421.479 510.602 419.201L513.342 418Z" fill="white"/>
</svg>
